<?xml version="1.0" encoding="utf-8"?>
<!-- Generator: Adobe Illustrator 25.2.1, SVG Export Plug-In . SVG Version: 6.00 Build 0)  -->
<svg version="1.1" id="Layer_1" xmlns="http://www.w3.org/2000/svg" xmlns:xlink="http://www.w3.org/1999/xlink" x="0px" y="0px"
	 viewBox="0 0 500 250" style="enable-background:new 0 0 500 250;" xml:space="preserve">
<style type="text/css">
	.st0{fill:#7257fa;}
</style>
<g>
	<g>
		<polygon class="st0" points="268.1,106.9 268.1,70.7 231.9,70.7 195.7,70.7 195.7,106.9 195.7,143.1 195.7,179.3 231.9,179.3 
			268.1,179.3 304.3,179.3 304.3,143.1 304.3,106.9 		"/>
	</g>
	<g>
		<polygon class="st0" points="412.9,106.9 412.9,70.7 376.7,70.7 340.5,70.7 340.5,106.9 340.5,143.1 340.5,179.3 376.7,179.3 
			412.9,179.3 449.1,179.3 449.1,143.1 449.1,106.9 		"/>
	</g>
	<g>
		<g>
			<polygon class="st0" points="87.1,106.9 87.1,70.7 50.9,70.7 50.9,106.9 50.9,143.1 50.9,179.3 87.1,179.3 87.1,143.1 
				123.3,143.1 123.3,106.9 			"/>
		</g>
		<g>
			<rect x="123.3" y="143.1" class="st0" width="36.2" height="36.2"/>
		</g>
		<g>
			<rect x="123.3" y="70.7" class="st0" width="36.2" height="36.2"/>
		</g>
	</g>
</g>
</svg>
